<svg xmlns="http://www.w3.org/2000/svg" xmlns:xlink="http://www.w3.org/1999/xlink" version="1.1" data-diagram-type="DESCRIPTION" style="width:920px;height:359px;background:#0B0F19;" width="920px" height="359px" viewBox="0 0 920 359" zoomAndPan="magnify" preserveAspectRatio="none" contentStyleType="text/css"><?plantuml 1.2026.7beta8?><defs/><g font-family="sans-serif" lengthAdjust="spacing"><rect x="0" y="0" width="920" height="359" fill="#0B0F19" style="stroke:none;"/><!--entity User--><g class="entity" data-qualified-name="User" id="ent0001" data-source-line="5"><ellipse cx="404.282" cy="14" rx="8" ry="8" fill="#38BDF8" style="stroke:#181818;stroke-width:0.5;"/><path d="M404.282,22 L404.282,49 M391.282,30 L417.282,30 M404.282,49 L391.282,64 M404.282,49 L417.282,64" style="stroke:#181818;stroke-width:0.5;" fill="none"/><text x="351.72" y="78.495" fill="#FFF" font-size="14" textLength="105.123" font-family="'Arial'">User / AI Agent</text></g><!--entity Daemon--><g class="entity" data-qualified-name="Daemon" id="ent0002" data-source-line="6"><rect x="290.56" y="158.8" width="227.437" height="36.297" fill="#059669" style="stroke:#181818;stroke-width:0.5;" rx="2.5" ry="2.5"/><text x="300.56" y="181.795" fill="#FFF" font-size="14" textLength="207.437" font-family="'Arial'">nunciod Background Daemon</text></g><!--entity DB--><g class="entity" data-qualified-name="DB" id="ent0003" data-source-line="7"><path d="M6,282.6 C6,272.6 107.277,272.6 107.277,272.6 C107.277,272.6 208.554,272.6 208.554,282.6 L208.554,324.194 C208.554,334.194 107.277,334.194 107.277,334.194 C107.277,334.194 6,334.194 6,324.194 L6,282.6" style="stroke:#181818;stroke-width:0.5;" fill="#6366F1"/><path d="M6,282.6 C6,292.6 107.277,292.6 107.277,292.6 C107.277,292.6 208.554,292.6 208.554,282.6" style="stroke:#181818;stroke-width:0.5;" fill="none"/><text x="16" y="309.595" fill="#FFF" font-size="14" textLength="157.931" font-family="'Arial'">Local SQLite Database</text><text x="16" y="325.892" fill="#FFF" font-size="14" textLength="182.554" font-family="'Arial'">(/.nuncio/nuncio_main.db)</text></g><!--entity Vault--><g class="entity" data-qualified-name="Vault" id="ent0004" data-source-line="8"><rect x="280.92" y="277.1" width="246.714" height="52.594" fill="#EAB308" style="stroke:#181818;stroke-width:0.5;" rx="2.5" ry="2.5"/><text x="290.92" y="300.095" fill="#FFF" font-size="14" textLength="137.074" font-family="'Arial'">OS Keyring Enclave</text><text x="290.92" y="316.392" fill="#FFF" font-size="14" textLength="226.714" font-family="'Arial'">(Keychain / Credential Manager)</text></g><!--entity Remote--><g class="entity" data-qualified-name="Remote" id="ent0005" data-source-line="9"><path d="M571.492,281.804 C578.119,273.441 584.377,272.583 590.187,282.634 C594.968,273.896 601.415,274.139 607.011,281.798 C612.791,274.234 619.571,274.444 624.821,282.406 C629.126,274.62 636.179,272.419 641.947,280.862 C645.761,271.18 654.596,271.878 659.535,279.734 C665.1,271.517 672.058,272.701 675.605,281.626 C681.233,273.216 687.605,272.628 693.797,281.016 C698.606,273.845 703.259,274.186 708.731,280.267 C714.245,271.582 722.208,272.953 726.635,281.402 C731.461,270.438 739.487,272.418 745.811,279.839 C751.948,272.489 757.319,272.532 761.632,281.598 C767.362,271.955 775.305,272.505 780.48,282.14 C784.901,273.296 791.424,274.726 796.527,281.435 C801.752,273.079 809.015,272.086 814.773,280.867 C830.908,282.654 832.462,293.298 824.768,304.968 C832.439,315.774 830.606,327.249 815.14,328.648 C808.793,337.28 803.06,338.746 796.192,329.192 C793.097,338.574 784.955,339.823 779.198,331.788 C773.613,338.846 766.739,339.154 762.854,330.068 C758.084,339.986 752.781,340.817 745.495,332.458 C740.325,342.87 734.382,341.602 726.894,334.992 C722.077,344.216 716.069,342.917 710.345,335.918 C704.38,343.524 698.726,342.487 693.431,335.159 C688.008,344.711 678.478,344.615 674.172,334.087 C668.726,343.006 661.289,341.972 656.814,333.138 C651.984,339.66 644.233,340.314 640.694,331.758 C633.855,340.842 627.987,338.902 622.177,330.659 C617.754,337.617 609.302,338.841 604.895,330.64 C600.018,337.788 593.787,338.977 589.237,330.316 C584.042,336.955 577.173,337.423 572.903,329.293 C558.668,326.857 552.815,319.336 560.093,305.378 C550.269,293.162 558.525,282.999 571.492,281.804" style="stroke:#181818;stroke-width:0.5;" fill="#EC4899"/><text x="577.3" y="300.095" fill="#FFF" font-size="14" textLength="227.958" font-family="'Arial'">Remote Mail &amp; Calendar Servers</text><text x="577.3" y="316.392" fill="#FFF" font-size="14" textLength="183.668" font-family="'Arial'">(IMAP/SMTP/JMAP/CalDAV)</text></g><!--link User to Daemon--><g class="link" data-entity-1="ent0001" data-entity-2="ent0002" id="lnk6" data-source-line="11" data-link-type="dependency"><path d="M404.28,87.28 C404.28,112.28 404.28,133.97 404.28,153.33" style="stroke:#181818;stroke-width:1;" fill="none" id="User-Daemon"/><polygon points="404.28,82.28,400.28,91.28,404.28,87.28,408.28,91.28,404.28,82.28" fill="#181818" style="stroke:#181818;stroke-width:1;stroke-linejoin:miter;stroke-miterlimit:10;"/><polygon points="404.28,158.33,408.28,149.33,404.28,153.33,400.28,149.33,404.28,158.33" fill="#181818" style="stroke:#181818;stroke-width:1;stroke-linejoin:miter;stroke-miterlimit:10;"/><text x="405.28" y="124.867" fill="#FFF" font-size="13" textLength="262.761" font-family="'Arial'">4-Byte Length-Prefixed BE JSON-RPC 2.0</text></g><!--link Daemon to DB--><g class="link" data-entity-1="ent0002" data-entity-2="ent0003" id="lnk7" data-source-line="12" data-link-type="dependency"><path d="M285.354,187.92 C224.644,195.01 162.72,206.25 139.28,225.1 C124.9,236.65 118.211,250.942 113.811,267.272" style="stroke:#181818;stroke-width:1;" fill="none" id="Daemon-DB"/><polygon points="290.32,187.34,280.917,184.411,285.354,187.92,281.845,192.357,290.32,187.34" fill="#181818" style="stroke:#181818;stroke-width:1;stroke-linejoin:miter;stroke-miterlimit:10;"/><polygon points="112.51,272.1,118.714,264.451,113.811,267.272,110.989,262.369,112.51,272.1" fill="#181818" style="stroke:#181818;stroke-width:1;stroke-linejoin:miter;stroke-miterlimit:10;"/><text x="140.28" y="238.167" fill="#FFF" font-size="13" textLength="255.557" font-family="'Arial'">Single-Writer WAL Transactions &amp; FTS5</text></g><!--link Daemon to Vault--><g class="link" data-entity-1="ent0002" data-entity-2="ent0004" id="lnk8" data-source-line="13" data-link-type="dependency"><path d="M404.28,200.51 C404.28,221.69 404.28,247.44 404.28,271.7" style="stroke:#181818;stroke-width:1;" fill="none" id="Daemon-Vault"/><polygon points="404.28,195.51,400.28,204.51,404.28,200.51,408.28,204.51,404.28,195.51" fill="#181818" style="stroke:#181818;stroke-width:1;stroke-linejoin:miter;stroke-miterlimit:10;"/><polygon points="404.28,276.7,408.28,267.7,404.28,271.7,400.28,267.7,404.28,276.7" fill="#181818" style="stroke:#181818;stroke-width:1;stroke-linejoin:miter;stroke-miterlimit:10;"/><text x="405.28" y="238.167" fill="#FFF" font-size="13" textLength="233.829" font-family="'Arial'">Store OAuth Tokens &amp; SASL Secrets</text></g><!--link Daemon to Remote--><g class="link" data-entity-1="ent0002" data-entity-2="ent0005" id="lnk9" data-source-line="14" data-link-type="dependency"><path d="M523.386,191.591 C575.886,199.351 626.2,209.97 647.28,225.1 C663.08,236.44 672.014,250.747 679.014,267.017" style="stroke:#181818;stroke-width:1;" fill="none" id="Daemon-Remote"/><polygon points="518.44,190.86,526.758,196.133,523.386,191.591,527.928,188.219,518.44,190.86" fill="#181818" style="stroke:#181818;stroke-width:1;stroke-linejoin:miter;stroke-miterlimit:10;"/><polygon points="680.99,271.61,681.107,261.762,679.014,267.017,673.759,264.924,680.99,271.61" fill="#181818" style="stroke:#181818;stroke-width:1;stroke-linejoin:miter;stroke-miterlimit:10;"/><text x="664.28" y="238.167" fill="#FFF" font-size="13" textLength="240.145" font-family="'Arial'">TLS 1.3 / OAuth2 PKCE Protocol Sync</text></g><?plantuml-src RL71QkCm5BpxAnusBBi7nqdJchWi1TkneQtJk9MtlIoK5rbrH1nfaUMokUotzyLEImkhYwJ7p30phzj9zGSDxc63VDSOtQiwrQqsu4sJQJwBdEu3KOiNx5kRQsNlS2_0ZOt4rlq_uYII3yTna5lwkhywOI20-1hYHYZh0dOmpBpv8bdc2yS8Rb4rBQchNd6fQqW-ZC4InLwhWJK-oUL558QHKwF53NP4ApJ75jXz8QqWr3Z-hRx_2oQZOZ1UptkKQb9lVeno2NZXF0ppsMSBQmQtuc2aQY1JlCNNen1D-9Qub2CregOOr0AiK64ZpAZsU6m1l2nEvjE5mrlTr-0-a66oj4BPmZT8iHMgHWDCc5TXEXA-NiLbm5PL6TmSNuHOne-Zu8dhPUdv8eeSP-Zif-zVlVTm2UT-SY188LHZjtvfn8lyAwYz36xO-iv_A5CucqoT4txa9iHZyfZLVpBKbu6dk83AeEfeOLAhZfpc5RluGXlJ4PDMAc0TztOBbTw90SrYLb0cReJjlh1E4IwXAXZC9dEgRw2UGNcRPb0QRJNNjBc3ucy0?></g></svg>