<svg xmlns="http://www.w3.org/2000/svg" xmlns:xlink="http://www.w3.org/1999/xlink" version="1.1" data-diagram-type="SEQUENCE" style="width:1209px;height:424px;background:#0B0F19;" width="1209px" height="424px" viewBox="0 0 1209 424" zoomAndPan="magnify" preserveAspectRatio="none" contentStyleType="text/css"><?plantuml 1.2026.7beta8?><defs/><g font-family="sans-serif" lengthAdjust="spacing"><rect x="0" y="0" width="1209" height="424" fill="#0B0F19" style="stroke:none;"/><g><title>Interface .CLI.TUI.GUI.MCP.</title><rect x="105.678" y="86.297" width="8" height="251.063" fill="#000" fill-opacity="0"/><line x1="109.178" y1="86.297" x2="109.178" y2="337.359" style="stroke:#181818;stroke-width:0.5;stroke-dasharray:5,5;"/></g><g><title>nunciod Daemon</title><rect x="502.108" y="86.297" width="8" height="251.063" fill="#000" fill-opacity="0"/><line x1="505.608" y1="86.297" x2="505.608" y2="337.359" style="stroke:#181818;stroke-width:0.5;stroke-dasharray:5,5;"/></g><g><title>SQLite WAL Storage</title><rect x="923.173" y="86.297" width="8" height="251.063" fill="#000" fill-opacity="0"/><line x1="926.673" y1="86.297" x2="926.673" y2="337.359" style="stroke:#181818;stroke-width:0.5;stroke-dasharray:5,5;"/></g><g><title>Remote IMAP.JMAP Server</title><rect x="1100.785" y="86.297" width="8" height="251.063" fill="#000" fill-opacity="0"/><line x1="1104.285" y1="86.297" x2="1104.285" y2="337.359" style="stroke:#181818;stroke-width:0.5;stroke-dasharray:5,5;"/></g><text x="10" y="82.995" fill="#FFF" font-size="14" textLength="192.356" font-family="'Arial'">Interface (CLI/TUI/GUI/MCP)</text><ellipse cx="109.178" cy="18.5" rx="8" ry="8" fill="#38BDF8" style="stroke:#181818;stroke-width:0.5;"/><path d="M109.178,26.5 L109.178,53.5 M96.178,34.5 L122.178,34.5 M109.178,53.5 L96.178,68.5 M109.178,53.5 L122.178,68.5" style="stroke:#181818;stroke-width:0.5;" fill="none"/><rect x="439.029" y="55" width="133.157" height="30.297" fill="#059669" style="stroke:#181818;stroke-width:0.5;" rx="2.5" ry="2.5"/><text x="446.029" y="74.995" fill="#FFF" font-size="14" textLength="119.157" font-family="'Arial'">nunciod Daemon</text><text x="853.375" y="82.995" fill="#FFF" font-size="14" textLength="140.595" font-family="'Arial'">SQLite WAL Storage</text><path d="M908.673,34 C908.673,24 926.673,24 926.673,24 C926.673,24 944.673,24 944.673,34 L944.673,60 C944.673,70 926.673,70 926.673,70 C926.673,70 908.673,70 908.673,60 L908.673,34" style="stroke:#181818;stroke-width:0.5;" fill="#6366F1"/><path d="M908.673,34 C908.673,44 926.673,44 926.673,44 C926.673,44 944.673,44 944.673,34" style="stroke:#181818;stroke-width:0.5;" fill="none"/><text x="1009.97" y="82.995" fill="#FFF" font-size="14" textLength="182.629" font-family="'Arial'">Remote IMAP/JMAP Server</text><ellipse cx="1104.285" cy="54" rx="12" ry="12" fill="#EC4899" style="stroke:#181818;stroke-width:0.5;"/><line x1="1092.285" y1="68" x2="1116.285" y2="68" style="stroke:#181818;stroke-width:0.5;"/><text x="10" y="350.354" fill="#FFF" font-size="14" textLength="192.356" font-family="'Arial'">Interface (CLI/TUI/GUI/MCP)</text><ellipse cx="109.178" cy="362.156" rx="8" ry="8" fill="#38BDF8" style="stroke:#181818;stroke-width:0.5;"/><path d="M109.178,370.156 L109.178,397.156 M96.178,378.156 L122.178,378.156 M109.178,397.156 L96.178,412.156 M109.178,397.156 L122.178,412.156" style="stroke:#181818;stroke-width:0.5;" fill="none"/><rect x="439.029" y="337.359" width="133.157" height="30.297" fill="#059669" style="stroke:#181818;stroke-width:0.5;" rx="2.5" ry="2.5"/><text x="446.029" y="357.354" fill="#FFF" font-size="14" textLength="119.157" font-family="'Arial'">nunciod Daemon</text><text x="853.375" y="350.354" fill="#FFF" font-size="14" textLength="140.595" font-family="'Arial'">SQLite WAL Storage</text><path d="M908.673,363.656 C908.673,353.656 926.673,353.656 926.673,353.656 C926.673,353.656 944.673,353.656 944.673,363.656 L944.673,389.656 C944.673,399.656 926.673,399.656 926.673,399.656 C926.673,399.656 908.673,399.656 908.673,389.656 L908.673,363.656" style="stroke:#181818;stroke-width:0.5;" fill="#6366F1"/><path d="M908.673,363.656 C908.673,373.656 926.673,373.656 926.673,373.656 C926.673,373.656 944.673,373.656 944.673,363.656" style="stroke:#181818;stroke-width:0.5;" fill="none"/><text x="1009.97" y="350.354" fill="#FFF" font-size="14" textLength="182.629" font-family="'Arial'">Remote IMAP/JMAP Server</text><ellipse cx="1104.285" cy="369.656" rx="12" ry="12" fill="#EC4899" style="stroke:#181818;stroke-width:0.5;"/><line x1="1092.285" y1="383.656" x2="1116.285" y2="383.656" style="stroke:#181818;stroke-width:0.5;"/><polygon points="493.608,111.43,503.608,115.43,493.608,119.43,497.608,115.43" fill="#181818" style="stroke:#181818;stroke-width:1;stroke-linejoin:miter;stroke-miterlimit:10;"/><line x1="109.178" y1="115.43" x2="499.608" y2="115.43" style="stroke:#181818;stroke-width:1;"/><text x="230.736" y="110.364" fill="#FFF" font-size="13" textLength="153.315" font-family="'Arial'">Connect Socket Stream</text><polygon points="493.608,140.563,503.608,144.563,493.608,148.563,497.608,144.563" fill="#181818" style="stroke:#181818;stroke-width:1;stroke-linejoin:miter;stroke-miterlimit:10;"/><line x1="109.178" y1="144.563" x2="499.608" y2="144.563" style="stroke:#181818;stroke-width:1;"/><text x="121.178" y="139.497" fill="#FFF" font-size="13" textLength="372.43" font-family="'Arial'">4-Byte Length Header + JSON-RPC Request (mail.search)</text><polygon points="914.673,169.695,924.673,173.695,914.673,177.695,918.673,173.695" fill="#181818" style="stroke:#181818;stroke-width:1;stroke-linejoin:miter;stroke-miterlimit:10;"/><line x1="505.608" y1="173.695" x2="920.673" y2="173.695" style="stroke:#181818;stroke-width:1;"/><text x="546.614" y="168.629" fill="#FFF" font-size="13" textLength="339.054" font-family="'Arial'">FTS5 Trigram Query (SELECT * FROM messages_fts)</text><polygon points="516.608,198.828,506.608,202.828,516.608,206.828,512.608,202.828" fill="#181818" style="stroke:#181818;stroke-width:1;stroke-linejoin:miter;stroke-miterlimit:10;"/><line x1="510.608" y1="202.828" x2="925.673" y2="202.828" style="stroke:#181818;stroke-width:1;stroke-dasharray:2,2;"/><text x="575.892" y="197.762" fill="#FFF" font-size="13" textLength="280.497" font-family="'Arial'">Return Filtered Message Records (&lt;3.2ms)</text><polygon points="120.178,227.961,110.178,231.961,120.178,235.961,116.178,231.961" fill="#181818" style="stroke:#181818;stroke-width:1;stroke-linejoin:miter;stroke-miterlimit:10;"/><line x1="114.178" y1="231.961" x2="504.608" y2="231.961" style="stroke:#181818;stroke-width:1;stroke-dasharray:2,2;"/><text x="161.229" y="226.895" fill="#FFF" font-size="13" textLength="292.329" font-family="'Arial'">4-Byte Length Header + JSON-RPC Response</text><polygon points="516.608,257.094,506.608,261.094,516.608,265.094,512.608,261.094" fill="#181818" style="stroke:#181818;stroke-width:1;stroke-linejoin:miter;stroke-miterlimit:10;"/><line x1="510.608" y1="261.094" x2="1103.285" y2="261.094" style="stroke:#181818;stroke-width:1;"/><text x="715.365" y="256.028" fill="#FFF" font-size="13" textLength="179.163" font-family="'Arial'">IMAP IDLE Push Notification</text><polygon points="914.673,286.227,924.673,290.227,914.673,294.227,918.673,290.227" fill="#181818" style="stroke:#181818;stroke-width:1;stroke-linejoin:miter;stroke-miterlimit:10;"/><line x1="505.608" y1="290.227" x2="920.673" y2="290.227" style="stroke:#181818;stroke-width:1;"/><text x="517.608" y="285.161" fill="#FFF" font-size="13" textLength="397.065" font-family="'Arial'">In-Memory NSQL Filter Evaluation &amp; Single-Writer WAL Insert</text><polygon points="120.178,315.359,110.178,319.359,120.178,323.359,116.178,319.359" fill="#181818" style="stroke:#181818;stroke-width:1;stroke-linejoin:miter;stroke-miterlimit:10;"/><line x1="114.178" y1="319.359" x2="504.608" y2="319.359" style="stroke:#181818;stroke-width:1;stroke-dasharray:2,2;"/><text x="162.419" y="314.293" fill="#FFF" font-size="13" textLength="289.948" font-family="'Arial'">Stream CoreEvent::MessageArrived over IPC</text><?plantuml-src ZL9XRzem4FtkNt4AqWIRKjhH8a3J90Z9bYgXb33ru-GwHx18R6OxIFpxNKAseNKV5Yc9Oxzxzzwzs8DKHsvu1QzS70gZQvK7kjG6UhUBs-XkoknlH8uxNfSkqigjU8NWpOtafVTlH4SIjTSLnEAF6fN05Atb1SvBMIWGg1mQnhXmLEJ5pTUE2uH-aCJ3xRTu-8NkD5WFFE0MviSZz4QJnJAQC69rKiWZLmuyLIiXTGvBZfLMBVQo93SFq_5uodBk-2kt93vxJgH3U9ada55NqjBYcpL2RpmQZwCxHhgaEuEt8H82n-byFNoa1sHeJcWk5UqIUc5mFvbE6MlK-P-xnZC8j58e76HQ791UpY2l_WRT-uipyIUe2hU7hyXpOlm0ZzdJoj-i0zWqKxCE-XMNvOr5RiH-m3flnDEgda6qpHvWQsJHJFgvHdE6VXOcOR25zn1jdbAeBcEtttVE3jZ5h7ybP8EkDWeYML84c4CN4-qBRN8B_K-Zcu-L_TERQidB_pYmHwqiCjRDwwffCrQ8bqa8wzhkOQMTt4d1dTJghSTO-IbjaRKLHTWfXV34oxgjW7UGILMKwByOsHmr2SVKsRWteYzXK4G6mnDbFPlz-YsDaIUohnkbyJhu2G00?></g></svg>