<svg xmlns="http://www.w3.org/2000/svg" xmlns:xlink="http://www.w3.org/1999/xlink" version="1.1" data-diagram-type="ACTIVITY" style="width:345px;height:693px;background:#0B0F19;" width="345px" height="693px" viewBox="0 0 345 693" zoomAndPan="magnify" preserveAspectRatio="none" contentStyleType="text/css"><?plantuml 1.2026.7beta8?><defs/><g font-family="sans-serif" lengthAdjust="spacing"><rect x="0" y="0" width="345" height="693" fill="#0B0F19" style="stroke:none;"/><g class="start_entity" data-qualified-name="start" id="ent0001" data-source-line="5"><ellipse cx="169.45" cy="16" rx="10" ry="10" fill="#222" style="stroke:#222;stroke-width:1;"/></g><rect x="83.36" y="66" width="172.18" height="33.969" fill="#0F172A" style="stroke:#181818;stroke-width:0.5;" rx="12.5" ry="12.5"/><text x="93.36" y="87.139" fill="#FFF" font-size="12" textLength="152.18" font-family="'Arial'">NSQL Source Code String</text><rect x="68.59" y="139.97" width="201.717" height="33.969" fill="#1E293B" style="stroke:#181818;stroke-width:0.5;" rx="12.5" ry="12.5"/><text x="78.59" y="161.109" fill="#FFF" font-size="12" textLength="181.717" font-family="'Arial'">NsqlParser::split_on_account()</text><rect x="7" y="213.94" width="324.904" height="33.969" fill="#312E81" style="stroke:#181818;stroke-width:0.5;" rx="12.5" ry="12.5"/><text x="17" y="235.079" fill="#FFF" font-size="12" textLength="304.904" font-family="'Arial'">Extract Target Account (*, %, or '%@domain.com')</text><rect x="61.38" y="287.91" width="216.148" height="33.969" fill="#065F46" style="stroke:#181818;stroke-width:0.5;" rx="12.5" ry="12.5"/><text x="71.38" y="309.049" fill="#FFF" font-size="12" textLength="196.148" font-family="'Arial'">sqlparser::Parser (SQLiteDialect)</text><rect x="24.46" y="361.88" width="289.982" height="33.969" fill="#065F46" style="stroke:#181818;stroke-width:0.5;" rx="12.5" ry="12.5"/><text x="34.46" y="383.019" fill="#FFF" font-size="12" textLength="269.982" font-family="'Arial'">AST Transformation (Expr -> ConditionNode)</text><rect x="48.96" y="435.84" width="240.975" height="33.969" fill="#EAB308" style="stroke:#181818;stroke-width:0.5;" rx="12.5" ry="12.5"/><text x="58.96" y="456.979" fill="#FFF" font-size="12" textLength="220.975" font-family="'Arial'">NsqlValidator (6-Pass Security Audit)</text><rect x="18.1" y="509.81" width="302.697" height="33.969" fill="#2563EB" style="stroke:#181818;stroke-width:0.5;" rx="12.5" ry="12.5"/><text x="28.1" y="530.949" fill="#FFF" font-size="12" textLength="282.697" font-family="'Arial'">ArcSwap&lt;CompiledFilterSet> Lock-Free Cache</text><rect x="41.79" y="583.78" width="255.33" height="33.969" fill="#059669" style="stroke:#181818;stroke-width:0.5;" rx="12.5" ry="12.5"/><text x="51.79" y="604.919" fill="#FFF" font-size="12" textLength="235.33" font-family="'Arial'">Pre-Ingestion Sync Execution (&lt;0.2ms)</text><g class="end_entity" data-qualified-name="end" id="ent0018" data-source-line="13"><ellipse cx="169.45" cy="668.75" rx="11" ry="11" fill="none" style="stroke:#222;stroke-width:1.5;"/><ellipse cx="169.45" cy="668.75" rx="6" ry="6" fill="#222" style="stroke:#222;stroke-width:1;"/></g><!--link start to NSQL Source Code String--><g class="link" data-entity-1="ent0001" data-entity-2="ent0002" id="lnk3" data-source-line="5" data-link-type="dependency"><path d="M169.45,26.31 C169.45,36.56 169.45,48.23 169.45,60.66" style="stroke:#181818;stroke-width:1;" fill="none" id="start-to-NSQL Source Code String"/><polygon points="169.45,65.66,173.45,56.66,169.45,60.66,165.45,56.66,169.45,65.66" fill="#181818" style="stroke:#181818;stroke-width:1;stroke-linejoin:miter;stroke-miterlimit:10;"/></g><!--link NSQL Source Code String to NsqlParser::split_on_account()--><g class="link" data-entity-1="ent0002" data-entity-2="ent0004" id="lnk5" data-source-line="6" data-link-type="dependency"><path d="M169.45,100.32 C169.45,112.09 169.45,122.92 169.45,134.69" style="stroke:#181818;stroke-width:1;" fill="none" id="NSQL Source Code String-to-NsqlParser::split_on_account()"/><polygon points="169.45,139.69,173.45,130.69,169.45,134.69,165.45,130.69,169.45,139.69" fill="#181818" style="stroke:#181818;stroke-width:1;stroke-linejoin:miter;stroke-miterlimit:10;"/></g><!--link NsqlParser::split_on_account() to Extract Target Account (*, %, or '%@domain.com')--><g class="link" data-entity-1="ent0004" data-entity-2="ent0006" id="lnk7" data-source-line="7" data-link-type="dependency"><path d="M169.45,174.28 C169.45,186.06 169.45,196.89 169.45,208.66" style="stroke:#181818;stroke-width:1;" fill="none" id="NsqlParser::split_on_account()-to-Extract Target Account (*, %, or '%@domain.com')"/><polygon points="169.45,213.66,173.45,204.66,169.45,208.66,165.45,204.66,169.45,213.66" fill="#181818" style="stroke:#181818;stroke-width:1;stroke-linejoin:miter;stroke-miterlimit:10;"/></g><!--link Extract Target Account (*, %, or '%@domain.com') to sqlparser::Parser (SQLiteDialect)--><g class="link" data-entity-1="ent0006" data-entity-2="ent0008" id="lnk9" data-source-line="8" data-link-type="dependency"><path d="M169.45,248.25 C169.45,260.03 169.45,270.86 169.45,282.62" style="stroke:#181818;stroke-width:1;" fill="none" id="Extract Target Account (*, %, or '%@domain.com')-to-sqlparser::Parser (SQLiteDialect)"/><polygon points="169.45,287.62,173.45,278.62,169.45,282.62,165.45,278.62,169.45,287.62" fill="#181818" style="stroke:#181818;stroke-width:1;stroke-linejoin:miter;stroke-miterlimit:10;"/></g><!--link sqlparser::Parser (SQLiteDialect) to AST Transformation (Expr -> ConditionNode)--><g class="link" data-entity-1="ent0008" data-entity-2="ent0010" id="lnk11" data-source-line="9" data-link-type="dependency"><path d="M169.45,322.22 C169.45,334 169.45,344.83 169.45,356.59" style="stroke:#181818;stroke-width:1;" fill="none" id="sqlparser::Parser (SQLiteDialect)-to-AST Transformation (Expr -> ConditionNode)"/><polygon points="169.45,361.59,173.45,352.59,169.45,356.59,165.45,352.59,169.45,361.59" fill="#181818" style="stroke:#181818;stroke-width:1;stroke-linejoin:miter;stroke-miterlimit:10;"/></g><!--link AST Transformation (Expr -> ConditionNode) to NsqlValidator (6-Pass Security Audit)--><g class="link" data-entity-1="ent0010" data-entity-2="ent0012" id="lnk13" data-source-line="10" data-link-type="dependency"><path d="M169.45,396.19 C169.45,407.97 169.45,418.8 169.45,430.56" style="stroke:#181818;stroke-width:1;" fill="none" id="AST Transformation (Expr -> ConditionNode)-to-NsqlValidator (6-Pass Security Audit)"/><polygon points="169.45,435.56,173.45,426.56,169.45,430.56,165.45,426.56,169.45,435.56" fill="#181818" style="stroke:#181818;stroke-width:1;stroke-linejoin:miter;stroke-miterlimit:10;"/></g><!--link NsqlValidator (6-Pass Security Audit) to ArcSwap<CompiledFilterSet> Lock-Free Cache--><g class="link" data-entity-1="ent0012" data-entity-2="ent0014" id="lnk15" data-source-line="11" data-link-type="dependency"><path d="M169.45,470.16 C169.45,481.94 169.45,492.77 169.45,504.53" style="stroke:#181818;stroke-width:1;" fill="none" id="NsqlValidator (6-Pass Security Audit)-to-ArcSwap&lt;CompiledFilterSet> Lock-Free Cache"/><polygon points="169.45,509.53,173.45,500.53,169.45,504.53,165.45,500.53,169.45,509.53" fill="#181818" style="stroke:#181818;stroke-width:1;stroke-linejoin:miter;stroke-miterlimit:10;"/></g><!--link ArcSwap<CompiledFilterSet> Lock-Free Cache to Pre-Ingestion Sync Execution (<0.2ms)--><g class="link" data-entity-1="ent0014" data-entity-2="ent0016" id="lnk17" data-source-line="12" data-link-type="dependency"><path d="M169.45,544.13 C169.45,555.91 169.45,566.74 169.45,578.5" style="stroke:#181818;stroke-width:1;" fill="none" id="ArcSwap&lt;CompiledFilterSet> Lock-Free Cache-to-Pre-Ingestion Sync Execution (&lt;0.2ms)"/><polygon points="169.45,583.5,173.45,574.5,169.45,578.5,165.45,574.5,169.45,583.5" fill="#181818" style="stroke:#181818;stroke-width:1;stroke-linejoin:miter;stroke-miterlimit:10;"/></g><!--link Pre-Ingestion Sync Execution (<0.2ms) to end--><g class="link" data-entity-1="ent0016" data-entity-2="ent0018" id="lnk19" data-source-line="13" data-link-type="dependency"><path d="M169.45,618.08 C169.45,630.44 169.45,642.05 169.45,652.58" style="stroke:#181818;stroke-width:1;" fill="none" id="Pre-Ingestion Sync Execution (&lt;0.2ms)-to-end"/><polygon points="169.45,657.58,173.45,648.58,169.45,652.58,165.45,648.58,169.45,657.58" fill="#181818" style="stroke:#181818;stroke-width:1;stroke-linejoin:miter;stroke-miterlimit:10;"/></g><?plantuml-src RP5TQy8m58Rl_HK7XrZ5IZzcfoAowbeOY3WgkvMpDBfWctGdATD_lzJABiPocJnltkSa-YnaXOGbV20xdqZLCb-hGX4yU2ilzMST_Kla_8XrOL8bpHPB3jsO11RT_udx9UbjTJhES02kkuJkDdlRGAPgOXpMAkUG6HBorBLzgVyKn9sMqb_53abpcizrLGXpKFA0Z5azummix2V1B5orS78nXCp07kd43SGj1ivm1BqHM8j-xpbN9GevPghiD_7G3vAftyPjLNMlQYl1iOx2y1Sx7MUcuRreaZv6BHzdUzWJIdrKLA8HIeAJN2e2UxXMCXVDrjQEzZVO3FMEXSZHM2adSdUeDMISrIJC5UBQHfjC4gz2Rtel8vPzOxLOgx8I1SzJKHXE6JTBs2XsTbFYzXsHVN8R32PHcDmVPKVSVPKdhc-2sLKoI2wsglLTUEEWr3V1oIoAPhUC_QCV?></g></svg>