<svg xmlns="http://www.w3.org/2000/svg" xmlns:xlink="http://www.w3.org/1999/xlink" version="1.1" data-diagram-type="DESCRIPTION" style="width:987px;height:589px;background:#0B0F19;" width="987px" height="589px" viewBox="0 0 987 589" zoomAndPan="magnify" preserveAspectRatio="none" contentStyleType="text/css"><?plantuml 1.2026.7beta8?><defs/><g font-family="sans-serif" lengthAdjust="spacing"><rect x="0" y="0" width="987" height="589" fill="#0B0F19" style="stroke:none;"/><!--cluster Four Great Interfaces--><g class="cluster" data-qualified-name="Four Great Interfaces" id="ent0001" data-source-line="6"><path d="M65.5,6 L236.264,6 A3.75,3.75 0 0 1 238.764,8.5 L245.764,28.297 L969.5,28.297 A2.5,2.5 0 0 1 972,30.797 L972,117.09 A2.5,2.5 0 0 1 969.5,119.59 L65.5,119.59 A2.5,2.5 0 0 1 63,117.09 L63,8.5 A2.5,2.5 0 0 1 65.5,6" style="stroke:#000;stroke-width:1.5;" fill="#0F172A"/><line x1="63" y1="28.297" x2="245.764" y2="28.297" style="stroke:#000;stroke-width:1.5;"/><text x="67" y="20.995" fill="#FFF" font-size="14" textLength="169.764" font-weight="700" font-family="'Arial'">Four Great Interfaces</text></g><!--cluster IPC Transport Layer--><g class="cluster" data-qualified-name="IPC Transport Layer" id="ent0006" data-source-line="13"><path d="M277.5,143.59 L435.323,143.59 A3.75,3.75 0 0 1 437.823,146.09 L444.823,165.887 L626.5,165.887 A2.5,2.5 0 0 1 629,168.387 L629,344.69 A2.5,2.5 0 0 1 626.5,347.19 L277.5,347.19 A2.5,2.5 0 0 1 275,344.69 L275,146.09 A2.5,2.5 0 0 1 277.5,143.59" style="stroke:#000;stroke-width:1.5;" fill="#1E1B4B"/><line x1="275" y1="165.887" x2="444.823" y2="165.887" style="stroke:#000;stroke-width:1.5;"/><text x="279" y="158.585" fill="#FFF" font-size="14" textLength="156.823" font-weight="700" font-family="'Arial'">IPC Transport Layer</text></g><!--cluster nunciod Background Daemon--><g class="cluster" data-qualified-name="nunciod Background Daemon" id="ent0009" data-source-line="18"><path d="M8.5,371.19 L240.849,371.19 A3.75,3.75 0 0 1 243.349,373.69 L250.349,393.487 L817.5,393.487 A2.5,2.5 0 0 1 820,395.987 L820,572.28 A2.5,2.5 0 0 1 817.5,574.78 L8.5,574.78 A2.5,2.5 0 0 1 6,572.28 L6,373.69 A2.5,2.5 0 0 1 8.5,371.19" style="stroke:#000;stroke-width:1.5;" fill="#064E3B"/><line x1="6" y1="393.487" x2="250.349" y2="393.487" style="stroke:#000;stroke-width:1.5;"/><text x="10" y="386.185" fill="#FFF" font-size="14" textLength="231.349" font-weight="700" font-family="'Arial'">nunciod Background Daemon</text></g><!--entity CLI--><g class="entity" data-qualified-name="Four Great Interfaces.CLI" id="ent0002" data-source-line="7"><rect x="79.39" y="41" width="201.219" height="62.594" fill="#1E293B" style="stroke:#181818;stroke-width:0.5;" rx="2.5" ry="2.5"/><rect x="260.609" y="46" width="15" height="10" fill="#1E293B" style="stroke:#181818;stroke-width:0.5;"/><rect x="258.609" y="48" width="4" height="2" fill="#1E293B" style="stroke:#181818;stroke-width:0.5;"/><rect x="258.609" y="52" width="4" height="2" fill="#1E293B" style="stroke:#181818;stroke-width:0.5;"/><text x="94.39" y="73.995" fill="#FFF" font-size="14" textLength="85.107" font-family="'Arial'">1. nuncio-cli</text><text x="94.39" y="90.292" fill="#FFF" font-size="14" textLength="161.219" font-family="'Arial'">(POSIX CLI &amp; Scripting)</text></g><!--entity TUI--><g class="entity" data-qualified-name="Four Great Interfaces.TUI" id="ent0003" data-source-line="8"><rect x="315.76" y="41" width="160.483" height="62.594" fill="#1E293B" style="stroke:#181818;stroke-width:0.5;" rx="2.5" ry="2.5"/><rect x="456.243" y="46" width="15" height="10" fill="#1E293B" style="stroke:#181818;stroke-width:0.5;"/><rect x="454.243" y="48" width="4" height="2" fill="#1E293B" style="stroke:#181818;stroke-width:0.5;"/><rect x="454.243" y="52" width="4" height="2" fill="#1E293B" style="stroke:#181818;stroke-width:0.5;"/><text x="330.76" y="73.995" fill="#FFF" font-size="14" textLength="87.883" font-family="'Arial'">2. nuncio-tui</text><text x="330.76" y="90.292" fill="#FFF" font-size="14" textLength="120.483" font-family="'Arial'">(Vim Ratatui TUI)</text></g><!--entity GUI--><g class="entity" data-qualified-name="Four Great Interfaces.GUI" id="ent0004" data-source-line="9"><rect x="510.96" y="41" width="200.077" height="62.594" fill="#1E293B" style="stroke:#181818;stroke-width:0.5;" rx="2.5" ry="2.5"/><rect x="691.037" y="46" width="15" height="10" fill="#1E293B" style="stroke:#181818;stroke-width:0.5;"/><rect x="689.037" y="48" width="4" height="2" fill="#1E293B" style="stroke:#181818;stroke-width:0.5;"/><rect x="689.037" y="52" width="4" height="2" fill="#1E293B" style="stroke:#181818;stroke-width:0.5;"/><text x="525.96" y="73.995" fill="#FFF" font-size="14" textLength="91.28" font-family="'Arial'">3. nuncio-gui</text><text x="525.96" y="90.292" fill="#FFF" font-size="14" textLength="160.077" font-family="'Arial'">(Tauri v2 Desktop GUI)</text></g><!--entity MCP--><g class="entity" data-qualified-name="Four Great Interfaces.MCP" id="ent0005" data-source-line="10"><rect x="746.49" y="41" width="209.019" height="62.594" fill="#1E293B" style="stroke:#181818;stroke-width:0.5;" rx="2.5" ry="2.5"/><rect x="935.509" y="46" width="15" height="10" fill="#1E293B" style="stroke:#181818;stroke-width:0.5;"/><rect x="933.509" y="48" width="4" height="2" fill="#1E293B" style="stroke:#181818;stroke-width:0.5;"/><rect x="933.509" y="52" width="4" height="2" fill="#1E293B" style="stroke:#181818;stroke-width:0.5;"/><text x="761.49" y="73.995" fill="#FFF" font-size="14" textLength="99.853" font-family="'Arial'">4. nuncio-mcp</text><text x="761.49" y="90.292" fill="#FFF" font-size="14" textLength="169.019" font-family="'Arial'">(Native LLM Agent MCP)</text></g><!--entity IPC--><g class="entity" data-qualified-name="IPC Transport Layer.IPC" id="ent0007" data-source-line="14"><rect x="290.51" y="178.59" width="322.974" height="46.297" fill="#312E81" style="stroke:#181818;stroke-width:0.5;" rx="2.5" ry="2.5"/><rect x="593.484" y="183.59" width="15" height="10" fill="#312E81" style="stroke:#181818;stroke-width:0.5;"/><rect x="591.484" y="185.59" width="4" height="2" fill="#312E81" style="stroke:#181818;stroke-width:0.5;"/><rect x="591.484" y="189.59" width="4" height="2" fill="#312E81" style="stroke:#181818;stroke-width:0.5;"/><text x="305.51" y="211.585" fill="#FFF" font-size="14" textLength="282.974" font-family="'Arial'">4-Byte Length-Prefixed BE JSON-RPC 2.0</text></g><!--entity SOCKET--><g class="entity" data-qualified-name="IPC Transport Layer.SOCKET" id="ent0008" data-source-line="15"><rect x="298.91" y="284.89" width="306.178" height="46.297" fill="#312E81" style="stroke:#181818;stroke-width:0.5;" rx="2.5" ry="2.5"/><rect x="585.088" y="289.89" width="15" height="10" fill="#312E81" style="stroke:#181818;stroke-width:0.5;"/><rect x="583.088" y="291.89" width="4" height="2" fill="#312E81" style="stroke:#181818;stroke-width:0.5;"/><rect x="583.088" y="295.89" width="4" height="2" fill="#312E81" style="stroke:#181818;stroke-width:0.5;"/><text x="313.91" y="317.885" fill="#FFF" font-size="14" textLength="266.178" font-family="'Arial'">UNIX Sockets / Windows Named Pipes</text></g><!--entity ENGINE--><g class="entity" data-qualified-name="nunciod Background Daemon.ENGINE" id="ent0010" data-source-line="19"><rect x="331.94" y="406.19" width="240.122" height="46.297" fill="#065F46" style="stroke:#181818;stroke-width:0.5;" rx="2.5" ry="2.5"/><rect x="552.062" y="411.19" width="15" height="10" fill="#065F46" style="stroke:#181818;stroke-width:0.5;"/><rect x="550.062" y="413.19" width="4" height="2" fill="#065F46" style="stroke:#181818;stroke-width:0.5;"/><rect x="550.062" y="417.19" width="4" height="2" fill="#065F46" style="stroke:#181818;stroke-width:0.5;"/><text x="346.94" y="439.185" fill="#FFF" font-size="14" textLength="200.122" font-family="'Arial'">Core Protocol &amp; Sync Engine</text></g><!--entity FILTER--><g class="entity" data-qualified-name="nunciod Background Daemon.FILTER" id="ent0011" data-source-line="20"><rect x="21.99" y="512.48" width="256.022" height="46.297" fill="#065F46" style="stroke:#181818;stroke-width:0.5;" rx="2.5" ry="2.5"/><rect x="258.012" y="517.48" width="15" height="10" fill="#065F46" style="stroke:#181818;stroke-width:0.5;"/><rect x="256.012" y="519.48" width="4" height="2" fill="#065F46" style="stroke:#181818;stroke-width:0.5;"/><rect x="256.012" y="523.48" width="4" height="2" fill="#065F46" style="stroke:#181818;stroke-width:0.5;"/><text x="36.99" y="545.475" fill="#FFF" font-size="14" textLength="216.022" font-family="'Arial'">NSQL Filter &amp; Webhook Engine</text></g><!--entity STORE--><g class="entity" data-qualified-name="nunciod Background Daemon.STORE" id="ent0012" data-source-line="21"><rect x="312.98" y="512.48" width="278.048" height="46.297" fill="#065F46" style="stroke:#181818;stroke-width:0.5;" rx="2.5" ry="2.5"/><rect x="571.028" y="517.48" width="15" height="10" fill="#065F46" style="stroke:#181818;stroke-width:0.5;"/><rect x="569.028" y="519.48" width="4" height="2" fill="#065F46" style="stroke:#181818;stroke-width:0.5;"/><rect x="569.028" y="523.48" width="4" height="2" fill="#065F46" style="stroke:#181818;stroke-width:0.5;"/><text x="327.98" y="545.475" fill="#FFF" font-size="14" textLength="238.048" font-family="'Arial'">SQLite WAL Storage &amp; FTS5 Index</text></g><!--entity VAULT--><g class="entity" data-qualified-name="nunciod Background Daemon.VAULT" id="ent0013" data-source-line="22"><rect x="626.46" y="512.48" width="177.074" height="46.297" fill="#065F46" style="stroke:#181818;stroke-width:0.5;" rx="2.5" ry="2.5"/><rect x="783.534" y="517.48" width="15" height="10" fill="#065F46" style="stroke:#181818;stroke-width:0.5;"/><rect x="781.534" y="519.48" width="4" height="2" fill="#065F46" style="stroke:#181818;stroke-width:0.5;"/><rect x="781.534" y="523.48" width="4" height="2" fill="#065F46" style="stroke:#181818;stroke-width:0.5;"/><text x="641.46" y="545.475" fill="#FFF" font-size="14" textLength="137.074" font-family="'Arial'">OS Keyring Enclave</text></g><!--link CLI to IPC--><g class="link" data-entity-1="ent0002" data-entity-2="ent0007" id="lnk14" data-source-line="25" data-link-type="dependency"><path d="M250.027,106.102 C298.757,128.942 355.122,155.349 399.162,175.979" style="stroke:#181818;stroke-width:1;" fill="none" id="CLI-IPC"/><polygon points="245.5,103.98,251.952,111.422,250.027,106.102,255.347,104.178,245.5,103.98" fill="#181818" style="stroke:#181818;stroke-width:1;stroke-linejoin:miter;stroke-miterlimit:10;"/><polygon points="403.69,178.1,397.237,170.66,399.162,175.979,393.843,177.904,403.69,178.1" fill="#181818" style="stroke:#181818;stroke-width:1;stroke-linejoin:miter;stroke-miterlimit:10;"/></g><!--link TUI to IPC--><g class="link" data-entity-1="ent0003" data-entity-2="ent0007" id="lnk15" data-source-line="26" data-link-type="dependency"><path d="M411.422,108.397 C421.522,131.377 431.099,153.182 440.189,173.872" style="stroke:#181818;stroke-width:1;" fill="none" id="TUI-IPC"/><polygon points="409.41,103.82,409.369,113.669,411.422,108.397,416.693,110.45,409.41,103.82" fill="#181818" style="stroke:#181818;stroke-width:1;stroke-linejoin:miter;stroke-miterlimit:10;"/><polygon points="442.2,178.45,442.242,168.601,440.189,173.872,434.918,171.819,442.2,178.45" fill="#181818" style="stroke:#181818;stroke-width:1;stroke-linejoin:miter;stroke-miterlimit:10;"/></g><!--link GUI to IPC--><g class="link" data-entity-1="ent0004" data-entity-2="ent0007" id="lnk16" data-source-line="27" data-link-type="dependency"><path d="M569.018,106.946 C540.438,129.846 509.771,154.433 483.961,175.123" style="stroke:#181818;stroke-width:1;" fill="none" id="GUI-IPC"/><polygon points="572.92,103.82,563.395,106.326,569.018,106.946,568.398,112.569,572.92,103.82" fill="#181818" style="stroke:#181818;stroke-width:1;stroke-linejoin:miter;stroke-miterlimit:10;"/><polygon points="480.06,178.25,489.584,175.742,483.961,175.123,484.58,169.5,480.06,178.25" fill="#181818" style="stroke:#181818;stroke-width:1;stroke-linejoin:miter;stroke-miterlimit:10;"/></g><!--link MCP to IPC--><g class="link" data-entity-1="ent0005" data-entity-2="ent0007" id="lnk17" data-source-line="28" data-link-type="dependency"><path d="M782.636,106.042 C764.106,114.332 748.24,120.82 729,127.59 C671.76,147.74 611.029,164.121 558.039,176.981" style="stroke:#181818;stroke-width:1;" fill="none" id="MCP-IPC"/><polygon points="787.2,104,777.351,104.024,782.636,106.042,780.618,111.327,787.2,104" fill="#181818" style="stroke:#181818;stroke-width:1;stroke-linejoin:miter;stroke-miterlimit:10;"/><polygon points="553.18,178.16,562.869,179.925,558.039,176.981,560.983,172.15,553.18,178.16" fill="#181818" style="stroke:#181818;stroke-width:1;stroke-linejoin:miter;stroke-miterlimit:10;"/></g><!--link IPC to SOCKET--><g class="link" data-entity-1="ent0007" data-entity-2="ent0008" id="lnk18" data-source-line="30" data-link-type="dependency"><path d="M452,230.37 C452,247.87 452,261.97 452,279.45" style="stroke:#181818;stroke-width:1;" fill="none" id="IPC-SOCKET"/><polygon points="452,225.37,448,234.37,452,230.37,456,234.37,452,225.37" fill="#181818" style="stroke:#181818;stroke-width:1;stroke-linejoin:miter;stroke-miterlimit:10;"/><polygon points="452,284.45,456,275.45,452,279.45,448,275.45,452,284.45" fill="#181818" style="stroke:#181818;stroke-width:1;stroke-linejoin:miter;stroke-miterlimit:10;"/></g><!--link SOCKET to ENGINE--><g class="link" data-entity-1="ent0008" data-entity-2="ent0010" id="lnk19" data-source-line="31" data-link-type="dependency"><path d="M452,336.48 C452,357.81 452,379.7 452,401" style="stroke:#181818;stroke-width:1;" fill="none" id="SOCKET-ENGINE"/><polygon points="452,331.48,448,340.48,452,336.48,456,340.48,452,331.48" fill="#181818" style="stroke:#181818;stroke-width:1;stroke-linejoin:miter;stroke-miterlimit:10;"/><polygon points="452,406,456,397,452,401,448,397,452,406" fill="#181818" style="stroke:#181818;stroke-width:1;stroke-linejoin:miter;stroke-miterlimit:10;"/></g><!--link ENGINE to FILTER--><g class="link" data-entity-1="ent0010" data-entity-2="ent0011" id="lnk20" data-source-line="32" data-link-type="dependency"><path d="M386.47,452.97 C335.81,470.46 270.746,492.928 220.126,510.408" style="stroke:#181818;stroke-width:1;" fill="none" id="ENGINE-to-FILTER"/><polygon points="215.4,512.04,225.213,512.883,220.126,510.408,222.601,505.321,215.4,512.04" fill="#181818" style="stroke:#181818;stroke-width:1;stroke-linejoin:miter;stroke-miterlimit:10;"/></g><!--link ENGINE to STORE--><g class="link" data-entity-1="ent0010" data-entity-2="ent0012" id="lnk21" data-source-line="33" data-link-type="dependency"><path d="M452,452.97 C452,470.46 452,489.56 452,507.04" style="stroke:#181818;stroke-width:1;" fill="none" id="ENGINE-to-STORE"/><polygon points="452,512.04,456,503.04,452,507.04,448,503.04,452,512.04" fill="#181818" style="stroke:#181818;stroke-width:1;stroke-linejoin:miter;stroke-miterlimit:10;"/></g><!--link ENGINE to VAULT--><g class="link" data-entity-1="ent0010" data-entity-2="ent0013" id="lnk22" data-source-line="34" data-link-type="dependency"><path d="M509.07,452.97 C553.18,470.46 609.312,492.717 653.392,510.197" style="stroke:#181818;stroke-width:1;" fill="none" id="ENGINE-to-VAULT"/><polygon points="658.04,512.04,651.148,505.004,653.392,510.197,648.199,512.441,658.04,512.04" fill="#181818" style="stroke:#181818;stroke-width:1;stroke-linejoin:miter;stroke-miterlimit:10;"/></g><?plantuml-src RPBVRvim4CVV-IjEYLHj3tI1q7QLfac10cAbX0NIJDhsu1g7MW4R6PCsclQ_ruOCKMb-yftkSp--T-s1iWO9LCCJmeTIy8uL7g-uWFd2NGJMhT6E4GNPewwI0MSoGJM1sKfGLCt-7t5E4lHl4e9vtN16cCpagIBGrPLj68sgZKgLCU2TW50G925YaeWzmgITgLu2wyPUmHy3uATr2QnZc78JL_GN-v2ki-W7U7445v1XGHj9MVdnDw2sTyujtxvTkfgqHr9scdoaDMoGHCg2V1iDZFfCcUN8b3sJeqvGEDfmHzg3v0s4_y3mFUYCO8qR1IP8qYE1E7w0LQdcXmSl7K3r6S6_4p6Yr8DS8DOsN4Y8qOc8cGwqNCSTf71CzoHLJi9A-MocWkpfAod0zU5RjaxCZKfWNoxw8ZhPV6dP_cTBazj4QPPnV22oXK-mewpWBotelHQGqeQqFPMjlNi_7y5fTyDmgjXuDt27ICsPNjUruo_FFNfS44W5bnppIg_en33uhAICz2Ny98mINpDNWNEjYIJx7aD0AxL_5RyZJy-S7wP84CMvlvaYYg1AYDqgXanoeHkyW23FhjGP5UHrc2LVRzxLMMTmJqv2NOjAZYjq7B8_hhPnFiQfaVKLVJ7Dhrf3Gv_7Q8HJGwznD0ojTsyD4Xfd9NlNCB9ndbnxXeccdhxRgQDlwmq0?></g></svg>